<svg width="130" height="26" viewBox="0 0 130 26" fill="none" xmlns="http://www.w3.org/2000/svg">
<path d="M13.7821 6.17053C14.5276 8.9784 15.1736 11.9851 15.1239 14.9172C15.0991 16.1099 14.9252 17.4269 14.13 18.3711C13.4839 19.1663 12.4155 19.7626 11.3718 19.5887C7.89305 18.5202 11.6203 12.9541 7.59487 14.2214C6.65063 14.5444 6.87427 16.1844 6.62578 16.9299C6.25305 17.9238 5.53245 18.6941 4.56336 19.1414C4.53851 19.1414 4.53851 19.1414 4.51366 19.1663C3.76821 19.4893 2.89852 19.539 2.12822 19.2905C1.23367 18.9923 0.662158 18.2469 0.662158 17.3026C0.662158 16.9547 0.736703 16.6069 0.836097 16.2838C0.885794 16.1099 0.960339 15.936 0.985187 15.762L1.03488 15.4141C1.18397 14.6935 1.33307 13.9978 1.53185 13.302C2.25246 10.4942 3.12215 7.61173 4.46397 5.0275C5.5076 3.01477 7.64457 0.753567 10.204 1.49902C12.3161 2.09538 13.2603 4.2572 13.7821 6.17053ZM10.3282 8.33234C10.5767 6.94083 9.18517 5.32568 8.31547 5.92204C7.54517 6.59295 7.32154 7.58689 7.24699 8.50628C7.19729 8.9287 7.17245 9.30143 7.37123 9.67415C7.54517 10.0966 7.9676 10.4445 8.43972 10.4693C9.70699 10.6184 10.1046 9.40082 10.3282 8.33234ZM27.8463 17.2281C27.7718 18.396 27.7718 19.3899 27.5979 20.5578C27.4985 21.2287 27.3245 22.322 26.9269 23.3159C26.6288 24.0365 26.0821 24.6826 25.3615 24.9808C24.5912 25.3038 23.7712 25.4281 22.976 25.4281H22.5039C21.4354 25.4281 19.4973 25.5275 18.8015 24.3347C18.3791 23.6141 18.4785 23.0426 18.7021 22.322C18.9009 21.7008 19.2736 21.1293 20.0439 21.2287C20.4664 21.2784 20.9385 21.4523 21.4603 21.7753C22.4791 22.3965 23.6221 22.5456 23.97 21.4523C24.3179 20.359 24.3427 20.0359 24.3427 18.8184C23.4233 19.3402 22.3051 19.6384 21.2118 19.5638C18.8015 19.365 17.0621 17.7002 16.6894 15.4887C16.6397 15.1408 16.6149 14.7929 16.6149 14.4699C16.6149 14.1469 16.6397 13.8487 16.6894 13.5505C16.8633 12.2335 17.2361 11.016 17.8076 9.92264C18.4039 8.82931 19.2736 7.93476 20.1433 7.41295C20.5658 7.13961 21.0379 6.96567 21.6094 6.89113C21.833 6.86628 22.0318 6.84143 22.2554 6.84143C22.4791 6.84143 22.7027 6.86628 22.9264 6.89113C23.3985 6.94083 23.8209 7.04022 24.2433 7.16446C24.8148 6.79174 25.5851 6.96567 26.1566 7.2887C27.1754 7.88507 27.4985 8.95355 27.6724 10.0469L27.7469 10.9414C27.7718 11.2645 27.7966 11.5378 27.8215 11.8111C27.896 12.656 27.9209 13.5008 27.9209 14.3705V14.5196C27.9209 15.439 27.896 16.3335 27.8463 17.2281ZM22.8767 10.3948C22.7276 10.2705 22.5785 10.196 22.4045 10.196C21.9324 10.196 20.9136 11.4881 20.4912 12.2087C20.2676 12.5814 20.1433 13.0535 20.1185 13.5754C20.0936 13.6499 20.0936 13.6996 20.1185 13.7493C20.1185 14.6438 20.5409 15.4887 21.4603 15.5632H21.5348C23.4979 15.5632 24.4918 11.7366 22.8767 10.3948ZM32.8657 14.942C32.9403 15.5632 33.1639 16.2341 33.7851 16.4329C37.3881 17.6008 36.6675 14.3954 38.4318 15.0663C39.1275 15.2899 39.5499 15.9111 39.6493 16.6069C39.8978 18.2717 38.4318 18.9923 36.9657 19.4644C35.2263 20.0111 33.3875 19.6632 32.0209 18.719C31.3251 18.2966 30.6791 17.725 30.2566 17.0541C29.7348 16.3335 29.536 15.4887 29.4366 14.619C29.4118 14.296 29.4118 13.9978 29.4118 13.6748C29.4118 12.4572 29.5609 10.9166 30.4554 9.30143C31.3251 7.88507 32.6669 6.86628 34.3815 6.69234C35.4003 6.46871 37.1645 7.04022 38.1833 7.73598C38.8045 8.1584 39.5003 8.68022 40.0221 10.0469C40.2706 10.6432 40.3948 11.4135 40.2457 11.9602C40.1463 12.6311 39.7239 13.4511 38.9039 13.6748C38.6057 13.7741 34.7045 14.0226 33.6112 13.9729C33.4869 13.9729 33.3378 13.9978 33.2633 14.0226C32.7912 14.2463 32.8409 14.5444 32.8657 14.942ZM34.6797 11.4632C35.3754 11.4632 36.0712 11.4632 36.7669 11.3638C37.1645 11.2893 37.3633 11.1402 37.3633 10.8917C37.3633 10.842 37.3384 10.7675 37.3136 10.6929C37.1148 9.97233 36.593 9.62446 35.9221 9.42567C35.599 9.32628 35.3009 9.27658 35.0027 9.27658C34.1578 9.27658 33.313 10.1214 33.313 10.7178C33.313 11.0408 33.5366 11.4881 34.0087 11.4881H34.0336C34.2821 11.4881 34.5057 11.4881 34.6797 11.4632ZM52.4711 17.5263C52.3966 17.7996 52.3469 18.1972 52.2723 18.6941C52.1978 19.1911 51.9742 19.4644 51.5766 19.4893C51.1045 19.5141 50.7317 19.5638 50.4584 19.5887C50.1602 19.6135 49.8372 19.6384 49.4645 19.6135C49.1911 19.6135 49.0421 19.4644 48.9178 19.2656C48.7439 18.9675 48.6942 18.4705 48.6942 17.9735C48.6942 17.5014 48.719 17.0541 48.7936 16.582C48.8681 16.1099 48.893 15.7869 48.9178 15.6129C48.9427 14.5444 48.7936 12.7305 48.396 11.7366C48.2221 11.3141 46.9548 11.1154 46.4578 11.1154C46.1348 11.1154 45.8615 11.4632 46.1596 15.2154C46.1348 15.7372 46.1348 16.2838 46.1845 16.8553C46.259 17.9735 45.8615 18.9923 45.3396 19.216C44.5693 19.6135 43.9978 19.6881 43.3518 19.5887C42.1839 19.3899 42.1093 18.2966 42.0596 16.8553L41.8609 12.7305C41.8609 11.4881 41.7615 10.7675 41.8609 9.57476C41.9603 8.68022 42.0845 7.01537 43.973 6.84143C45.6378 6.76689 47.2778 6.79174 48.7936 7.04022C49.9117 7.21416 50.7317 7.23901 51.4275 8.43173C52.1233 9.62446 52.3469 10.6681 52.5457 11.8608C52.6451 12.4572 52.6699 16.5075 52.4711 17.5263ZM65.8893 9.62446C65.8644 10.7923 65.765 11.9105 65.6408 13.0287C65.442 14.4451 65.4172 16.3087 65.2681 17.2778C65.2432 17.7002 65.119 18.2717 64.7463 18.5699C63.2802 19.8123 61.4414 20.0111 59.4784 19.6632C57.6893 19.2905 55.7511 18.4705 54.8317 16.8057C53.5645 14.619 54.1111 11.1154 55.3784 8.9287C55.8008 8.25779 56.3723 7.76082 57.1426 7.46264C58.1614 7.04022 60.7208 7.56204 61.7396 8.2081C61.7396 7.86022 61.7148 7.48749 61.6899 7.11477C61.6651 6.71719 61.6154 6.31962 61.5905 5.94689C61.4663 4.48083 61.3669 3.03962 61.9881 2.16993C63.3547 0.778416 65.2929 1.42448 65.7153 3.13902C65.9887 4.2075 65.8893 6.36931 65.8893 9.62446ZM59.1057 11.1402C58.1614 11.6869 57.8632 13.8984 58.6087 14.9172C59.2796 15.762 60.5966 15.762 61.2178 14.7432C61.7893 13.5257 61.4166 11.7366 60.522 11.1402C60.1245 10.8669 59.6275 10.8917 59.1057 11.1402ZM78.239 12.5317C78.2887 14.1469 78.3135 15.8863 77.9656 17.5014C77.742 18.6196 77.0214 19.7129 75.7541 19.7378C75.282 19.7378 74.8099 19.5638 74.5117 19.1414C74.3378 18.8929 74.2632 18.6196 74.2384 18.3463C73.5675 19.1663 72.4493 19.6135 71.3808 19.4644C70.0638 19.2905 68.9456 18.3214 68.3244 17.1535C67.6038 15.7372 67.5293 14.0475 67.8026 12.482C68.0511 10.9911 68.6972 9.47537 69.865 8.50628C71.5299 7.08992 75.9032 5.8475 77.4438 8.03416C78.3384 9.27658 78.2141 11.0657 78.239 12.5317ZM73.1947 15.8614C74.0893 15.3396 74.6856 14.1469 74.6359 13.1529C74.5117 11.9105 73.4184 9.40082 72.2505 10.7178C71.3559 11.6869 70.9832 12.9293 71.182 14.2463C71.3559 15.2154 72.2256 16.3832 73.1947 15.8614ZM100.106 17.576C100.031 18.1972 99.5092 18.8184 98.888 19.1166C98.2916 19.4147 97.2728 19.1414 96.7759 18.8184C96.5025 18.5947 96.2541 18.2469 96.0801 17.8244C95.4838 16.1844 94.5395 14.122 93.9432 13.2523C93.4213 12.4323 92.9492 12.656 93.0486 13.7244C93.2723 16.1844 93.8935 16.7808 92.9244 18.2717C92.7256 18.6444 92.5268 18.8432 92.4274 18.9426C92.005 19.4644 91.508 19.6881 91.0359 19.7129C90.9862 19.7378 90.9365 19.7378 90.8868 19.7378C90.1165 19.7378 89.2965 19.1663 88.7747 18.6444C87.4329 16.9796 87.905 15.8863 87.7311 10.5935C87.7311 9.00325 87.6814 7.04022 88.2032 5.25113C88.4765 4.35659 89.0232 3.36265 89.8432 2.26932C90.5141 1.64811 91.6074 1.27538 92.7753 1.20084C92.8995 1.17599 93.0486 1.17599 93.1729 1.17599C93.9432 1.17599 94.8874 1.30023 95.608 1.72266C97.0244 2.51781 98.6395 3.95901 98.8383 5.67356C98.9625 6.69234 98.7638 6.96567 98.4159 8.03416C98.4159 8.05901 98.4159 8.05901 98.391 8.08385C98.068 8.77961 97.5462 9.40082 96.9747 9.97233C98.6395 12.482 100.106 15.439 100.106 17.576ZM94.3904 5.15174C94.1916 4.9778 93.968 4.85356 93.6947 4.75416C93.6201 4.72932 93.5207 4.70447 93.4462 4.70447C92.0298 4.70447 91.1601 6.54325 92.1044 7.78567C92.2783 8.05901 92.651 8.2081 93.1729 8.28264H93.3965C94.3904 8.28264 94.9122 7.46264 94.9122 6.41901C94.9122 5.99659 94.788 5.52447 94.3904 5.15174ZM112.555 8.25779C112.083 9.32628 111.113 10.2457 110.194 10.8669C109.324 11.4384 108.281 11.6123 107.212 11.8111C107.411 12.6063 107.535 13.6499 107.535 14.6687C107.56 16.582 107.336 18.5699 107.013 19.0917C106.74 19.3153 106.417 19.4893 106.044 19.5638C105.87 19.5887 105.721 19.6135 105.547 19.6135C105.15 19.6135 104.727 19.4893 104.305 19.2905C104.081 19.1911 103.883 19.0669 103.709 18.8929C102.541 17.9984 102.218 16.6069 102.044 15.2402C102.019 15.0663 101.994 14.6687 101.969 14.0475L101.895 11.9105C101.87 11.016 101.845 10.0717 101.845 9.17719V9.00325C101.845 7.3881 101.895 5.87234 102.093 5.27598C102.715 3.46205 103.858 1.72266 105.821 1.32508C106.193 1.25054 106.541 1.20084 106.914 1.20084C107.883 1.20084 109.349 1.49902 110.616 2.6172C111.71 3.51174 112.903 5.30083 112.903 6.79174C112.903 7.2887 112.778 7.78567 112.555 8.25779ZM108.653 5.7978C108.554 5.47477 107.908 4.90326 107.51 4.77901C107.287 4.62992 106.914 4.67962 106.69 4.85356C106.318 5.17659 106.044 6.14568 106.044 7.13961C106.044 7.66143 106.541 8.45658 107.237 8.55597C107.436 8.63052 107.809 8.53113 108.107 8.23294C108.33 7.95961 108.529 7.63658 108.678 7.21416C108.852 6.81658 108.803 6.29477 108.653 5.7978ZM124.631 10.5438C125.501 9.99718 127.613 10.4445 128.284 11.2148C129.476 12.656 128.83 15.5384 128.507 17.2032C127.861 20.6323 123.513 19.5887 121.177 18.9675C117.798 18.0481 114.841 15.8863 114.244 12.159C113.698 8.75476 115.586 4.67962 118.369 2.76629C120.705 1.17599 122.991 1.0269 126.619 1.8469C127.563 2.07053 128.085 3.21356 128.209 4.10811C128.309 4.82871 128.11 5.59901 127.662 6.14568C125.65 8.53113 121.053 5.42507 119.587 8.60567C119.09 9.72385 119.413 11.016 120.009 12.0099C120.655 13.1032 122.444 15.3893 123.836 14.1469C124.606 13.4511 123.761 11.0905 124.631 10.5438Z" fill="#F5C447"/>
</svg>
