<svg width="16" height="16" viewBox="0 0 16 16" fill="none" xmlns="http://www.w3.org/2000/svg">
<path d="M11.4224 6.70229L11.4224 6.70232L11.4263 6.69826C11.7424 6.37129 11.748 5.84989 11.4224 5.52422C11.0989 5.20071 10.5678 5.20071 10.2443 5.52422L7.05333 8.71518L5.7557 7.41755C5.43219 7.09404 4.90114 7.09404 4.57763 7.41755C4.25412 7.74106 4.25412 8.27211 4.57763 8.59562L6.4643 10.4823C6.61943 10.6374 6.83059 10.7266 7.05333 10.7266C7.27608 10.7266 7.48724 10.6374 7.64237 10.4823L11.4224 6.70229ZM1.66667 7.99992C1.66667 4.51068 4.51076 1.66659 8 1.66659C11.4892 1.66659 14.3333 4.51068 14.3333 7.99992C14.3333 11.4892 11.4892 14.3333 8 14.3333C4.51076 14.3333 1.66667 11.4892 1.66667 7.99992Z" fill="#64C661" stroke="#64C661" stroke-width="0.666667"/>
</svg>
